#!OML:ASF F:\VICON\USERDATA\INSTALL\Justin_Nancy\Justin_Nancy.ASF
:FULLY-SPECIFIED
:DEGREES
254
root -16.9366 16.9682 26.562 -5.22763 -48.1821 2.57485
lowerback 8.34296 2.38717 -2.34018
upperback -0.168182 3.02668 1.62419
thorax -5.06671 1.57438 2.62241
lowerneck -14.7194 -3.4512 -10.194
upperneck 23.4826 -3.91267 5.95783
head 10.2498 -2.08639 3.30448
rclavicle 1.77043e-014 1.59028e-015
rhumerus -28.7707 -13.133 -79.1749
rradius 40.14
rwrist -7.92802
rhand -17.7198 16.6379
rfingers 7.12502
rthumb 8.54077 -13.1694
lclavicle 1.77043e-014 1.59028e-015
lhumerus -42.5964 21.7826 78.2032
lradius 16.4454
lwrist -17.3192
lhand -15.9485 27.5331
lfingers 7.12502
lthumb 10.2498 57.2634
rfemur -1.7673 0.611164 20.5185
rtibia 65.2385
rfoot 19.5569 -0.856573
rtoes 1.40537
lfemur -21.7131 -0.435436 -24.2414
ltibia 34.7084
lfoot -6.59954 -3.5535
ltoes 7.86187
255
root -17.0924 16.9889 26.7235 -5.75006 -47.9681 3.43544
lowerback 8.16036 2.17392 -3.02681
upperback -0.100767 2.67297 1.46916
thorax -4.89463 1.41212 2.90084
lowerneck -14.7587 -3.31448 -10.0042
upperneck 23.3839 -3.69985 5.72871
head 10.1935 -1.99508 3.21693
rclavicle 2.37719e-014 -1.59028e-014
rhumerus -28.9306 -12.9719 -79.4122
rradius 39.4826
rwrist -7.0278
rhand -17.536 15.8175
rfingers 7.12502
rthumb 8.71811 -13.9825
lclavicle 2.37719e-014 -1.59028e-014
lhumerus -41.8414 21.5861 78.5334
lradius 16.1843
lwrist -16.6841
lhand -15.9528 27.2318
lfingers 7.12502
lthumb 10.2457 56.9623
rfemur -3.8571 -0.118101 19.6659
rtibia 67.4969
rfoot 17.9211 -2.88082
rtoes 2.89428
lfemur -20.8058 -0.870059 -25.0234
ltibia 34.4042
lfoot -7.31158 -2.98386
ltoes 6.87485
256
root -17.2508 17.0032 26.8842 -5.92842 -47.8937 3.84319
lowerback 7.90393 2.04954 -3.4106
upperback -0.0888558 2.47882 1.46087
thorax -4.73968 1.32313 3.14135
lowerneck -14.431 -3.28936 -10.2518
upperneck 23.1178 -3.63422 5.75767
head 10.0358 -1.98405 3.27535
rclavicle -4.70079e-014 -2.70347e-014
rhumerus -29.2139 -13.1302 -79.2293
rradius 38.5513
rwrist -5.86776
rhand -16.6933 16.9121
rfingers 7.12502
rthumb 9.53127 -12.8524
lclavicle -4.70079e-014 -2.70347e-014
lhumerus -41.2164 21.5103 78.8127
lradius 15.9729
lwrist -16.6356
lhand -16.0395 27.1522
lfingers 7.12502
lthumb 10.1621 56.8868
rfemur -5.80206 -0.491178 19.2081
rtibia 69.4858
rfoot 16.2881 -5.41979
rtoes 8.54658
lfemur -19.9392 -1.17195 -25.442
ltibia 34.1727
lfoot -8.07924 -2.36473
ltoes 5.87991
257
root -17.4085 17.0181 27.0551 -6.31519 -47.7891 4.37904
lowerback 7.62975 1.93984 -3.6912
upperback 0.00110076 2.31224 1.35848
thorax -4.48475 1.24013 3.22242
lowerneck -14.0725 -3.24865 -10.6025
upperneck 22.7869 -3.58215 6.01976
head 9.85639 -1.96085 3.43164
rclavicle -5.24094e-014 1.59028e-015
rhumerus -29.5693 -13.2605 -79.1385
rradius 37.7919
rwrist -4.72675
rhand -16.2335 17.6049
rfingers 7.12502
rthumb 9.97486 -12.1387
lclavicle -5.24094e-014 1.59028e-015
lhumerus -40.5539 21.5877 78.8847
lradius 15.8677
lwrist -17.0377
lhand -15.3698 27.2564
lfingers 7.12502
lthumb 10.8081 56.9584
rfemur -7.4558 -0.880362 18.6
rtibia 71.1384
rfoot 13.9247 -6.49861
rtoes 13.754
lfemur -18.8726 -1.4463 -25.9934
ltibia 33.8609
lfoot -8.6775 -1.85854
ltoes 7.36386
258
root -17.566 17.057 27.2282 -6.30118 -47.6353 4.38438
lowerback 7.5255 1.78417 -3.62595
upperback 0.00340582 2.11453 1.36419
thorax -4.4044 1.13938 3.218
lowerneck -14.1997 -3.1275 -10.6203
upperneck 23.1786 -3.37515 5.87789
head 9.99932 -1.88952 3.41711
rclavicle 7.90792e-014 -7.95139e-016
rhumerus -30.0333 -13.7438 -78.9662
rradius 36.978
rwrist -3.34271
rhand -16.0524 17.5534
rfingers 7.12502
rthumb 10.1496 -12.1817
lclavicle 7.90792e-014 -7.95139e-016
lhumerus -40.0017 21.75 78.8902
lradius 15.7294
lwrist -18.019
lhand -14.9811 27.1269
lfingers 7.12502
lthumb 11.1829 56.8089
rfemur -9.39573 -1.83151 18.5113
rtibia 72.3815
rfoot 12.1478 -5.09144
rtoes 8.67344
lfemur -17.7686 -1.90059 -26.0943
ltibia 33.3932
lfoot -9.10439 -1.60701
ltoes 10.5935
259
root -17.7182 17.0963 27.3911 -6.7764 -47.1383 5.3311
lowerback 7.46816 1.56266 -4.3568
upperback -0.202223 1.75147 1.24738
thorax -4.57573 0.982431 3.55036
lowerneck -14.1333 -3.01115 -10.6818
upperneck 23.6264 -3.18934 5.73185
head 10.1295 -1.83862 3.40758
rclavicle -2.8802e-014 -8.74653e-015
rhumerus -30.6554 -14.3096 -78.6573
rradius 36.0641
rwrist -2.09507
rhand -15.7546 17.6207
rfingers 7.12502
rthumb 10.4368 -12.1002
lclavicle -2.8802e-014 -8.74653e-015
lhumerus -39.7175 21.73 79.0073
lradius 15.6728
lwrist -19.1251
lhand -15.2147 26.8557
lfingers 7.12502
lthumb 10.9577 56.5497
rfemur -11.6149 -3.02965 17.719
rtibia 73.3946
rfoot 10.4439 -4.04666
rtoes 1.9352
lfemur -16.8562 -2.75848 -26.9189
ltibia 32.8422
lfoot -9.42148 -1.37173
ltoes 13.8454
260
root -17.8683 17.1091 27.5439 -8.06672 -46.5571 7.4433
lowerback 7.14645 1.40476 -5.81563
upperback -0.191419 1.41131 0.781739
thorax -4.37728 0.836225 3.93221
lowerneck -14.2464 -3.17232 -10.935
upperneck 23.9517 -3.43304 6.02469
head 10.3019 -1.94733 3.52925
rclavicle 2.51991e-014 1.66979e-014
rhumerus -31.2242 -14.0299 -78.9015
rradius 35.8279
rwrist -2.04045
rhand -15.8969 16.9467
rfingers 7.12502
rthumb 10.2996 -12.7811
lclavicle 2.51991e-014 1.66979e-014
lhumerus -38.8638 21.3247 79.277
lradius 15.7264
lwrist -19.8336
lhand -15.1508 26.6456
lfingers 7.12502
lthumb 11.0193 56.3364
rfemur -13.5912 -3.8583 15.8231
rtibia 74.2248
rfoot 8.07474 -3.73428
rtoes 0.558026
lfemur -16.0379 -3.35489 -28.6999
ltibia 32.4489
lfoot -9.97478 -1.14167
ltoes 15.113
261
root -18.0184 17.1137 27.6957 -8.29189 -46.5823 7.7941
lowerback 6.94783 1.35249 -6.05491
upperback -0.0692607 1.33481 0.722883
thorax -4.13348 0.7925 4.01843
lowerneck -14.2021 -3.02319 -10.5285
upperneck 23.8523 -3.15936 5.38733
head 10.2149 -1.85515 3.26483
rclavicle -7.26185e-014 1.11319e-014
rhumerus -31.631 -14.3967 -78.8366
rradius 35.1497
rwrist -1.2624
rhand -16.6498 15.9421
rfingers 7.12502
rthumb 9.57325 -13.8204
lclavicle -7.26185e-014 1.11319e-014
lhumerus -37.7541 20.5398 79.9288
lradius 15.7064
lwrist -19.9233
lhand -15.4148 26.3269
lfingers 7.12502
lthumb 10.7646 56.0311
rfemur -15.2414 -3.85247 15.5669
rtibia 74.7279
rfoot 5.83455 -3.89722
rtoes 2.56541
lfemur -15.1226 -3.5759 -28.9874
ltibia 32.2168
lfoot -10.5991 -1.05195
ltoes 17.9532
262
root -18.1681 17.1269 27.8574 -7.17112 -47.0263 5.92294
lowerback 7.10821 1.32706 -4.66441
upperback 0.0474953 1.42355 1.08959
thorax -4.08455 0.808282 3.60551
lowerneck -14.044 -2.80886 -9.80725
upperneck 23.6305 -2.81249 4.4742
head 10.0501 -1.73087 2.85856
rclavicle 9.97651e-015 -2.8625e-014
rhumerus -31.9863 -15.6831 -78.4003
rradius 33.9097
rwrist 0.811727
rhand -17.7726 14.7643
rfingers 7.12502
rthumb 8.4898 -15.045
lclavicle 9.97651e-015 -2.8625e-014
lhumerus -36.7638 19.8825 80.4189
lradius 15.5185
lwrist -20.6102
lhand -16.1192 25.6792
lfingers 7.12502
lthumb 10.0852 55.4176
rfemur -16.5924 -3.48866 17.358
rtibia 74.8016
rfoot 4.58238 -4.39125
rtoes 2.32817
lfemur -14.0487 -3.53347 -27.5671
ltibia 32.2384
lfoot -11.4182 -1.02916
ltoes 20.0791
263
root -18.3176 17.1323 28.0211 -6.78564 -46.9568 5.24323
lowerback 7.08748 1.14359 -4.07912
upperback 0.153499 1.23429 1.22387
thorax -3.93338 0.698565 3.43676
lowerneck -13.9678 -2.64516 -9.66558
upperneck 23.4995 -2.55951 4.23187
head 9.96327 -1.62672 2.77979
rclavicle 6.01075e-014 1.11319e-014
rhumerus -32.594 -15.9794 -78.2047
rradius 33.3228
rwrist 2.0441
rhand -18.5199 14.3981
rfingers 7.12502
rthumb 7.76851 -15.4392
lclavicle 6.01075e-014 1.11319e-014
lhumerus -35.9194 19.5027 80.7898
lradius 15.6587
lwrist -21.2292
lhand -16.3791 25.7662
lfingers 7.12502
lthumb 9.83447 55.5165
rfemur -17.9436 -3.80143 17.9977
rtibia 74.663
rfoot 3.29146 -4.25797
rtoes -0.504214
lfemur -13.2025 -3.27611 -27.3071
ltibia 32.5325
lfoot -12.392 -0.699889
ltoes 16.5421
264
root -18.4636 17.1215 28.1794 -6.63482 -46.7287 5.03261
lowerback 7.14055 0.943602 -3.84157
upperback 0.126762 0.985499 1.24
thorax -3.96424 0.571779 3.34536
lowerneck -14.0047 -2.3883 -9.38699
upperneck 23.7341 -2.20787 3.98403
head 10.0198 -1.47383 2.69311
rclavicle -7.29912e-016 1.27222e-014
rhumerus -33.3448 -16.1303 -77.9644
rradius 32.7227
rwrist 2.93165
rhand -18.9309 15.0818
rfingers 7.12502
rthumb 7.37184 -14.7697
lclavicle -7.29912e-016 1.27222e-014
lhumerus -35.3282 18.9763 81.0486
lradius 16.2072
lwrist -21.6376
lhand -15.8057 25.8761
lfingers 7.12502
lthumb 10.3876 55.5995
rfemur -19.2585 -4.1327 18.1569
rtibia 74.4142
rfoot 1.55383 -4.26467
rtoes -0.0117185
lfemur -12.4338 -2.92378 -27.4534
ltibia 32.7566
lfoot -13.3956 -0.234133
ltoes 11.7104
265
root -18.6092 17.108 28.3379 -6.06998 -46.6462 4.28917
lowerback 7.27291 0.789594 -3.28431
upperback 0.0257226 0.827796 1.39637
thorax -4.12377 0.48883 3.20922
lowerneck -13.7822 -2.07141 -9.03093
upperneck 23.8609 -1.79825 3.66606
head 9.98434 -1.29564 2.57475
rclavicle 2.30217e-014 -7.15625e-015
rhumerus -34.0326 -17.0331 -77.3182
rradius 31.6716
rwrist 4.51319
rhand -18.9398 14.8482
rfingers 7.12502
rthumb 7.36331 -15.0036
lclavicle 2.30217e-014 -7.15625e-015
lhumerus -34.8113 18.3777 81.3134
lradius 16.6186
lwrist -22.1088
lhand -15.3143 25.5146
lfingers 7.12502
lthumb 10.8616 55.2137
rfemur -20.5509 -4.14816 18.8609
rtibia 73.965
rfoot -0.627901 -4.21196
rtoes -2.65709
lfemur -11.5842 -3.00297 -27.0566
ltibia 32.6569
lfoot -13.9423 0.0546372
ltoes 9.69153
266
root -18.7593 17.1008 28.4854 -6.85128 -46.2428 5.62064
lowerback 7.16106 0.676819 -4.34985
upperback -0.0038843 0.585807 1.2318
thorax -4.08271 0.388672 3.66685
lowerneck -13.9579 -2.24446 -9.26778
upperneck 24.0124 -1.96989 3.6682
head 10.0898 -1.3986 2.59466
rclavicle 1.0107e-014 2.06736e-014
rhumerus -34.721 -17.5884 -76.6978
rradius 31.0853
rwrist 5.22756
rhand -18.1644 14.5437
rfingers 7.12502
rthumb 8.11165 -15.2806
lclavicle 1.0107e-014 2.06736e-014
lhumerus -33.865 17.3045 81.985
lradius 16.8413
lwrist -21.7527
lhand -15.4347 25.2284
lfingers 7.12502
lthumb 10.7455 54.9336
rfemur -22.3494 -4.70067 17.9977
rtibia 73.4359
rfoot -2.53128 -3.54512
rtoes -9.95591
lfemur -11.0071 -3.46011 -28.2246
ltibia 32.749
lfoot -14.477 0.559228
ltoes 6.84496
267
root -18.9163 17.1057 28.6269 -7.42452 -45.5997 7.3146
lowerback 6.5002 0.463964 -5.76897
upperback -0.0362263 0.212591 0.944895
thorax -3.71522 0.219014 4.20854
lowerneck -14.3066 -2.3628 -9.59961
upperneck 24.1708 -2.14696 4.16544
head 10.2351 -1.45325 2.80686
rclavicle 8.61359e-014 -1.82882e-014
rhumerus -35.1186 -17.3303 -76.6204
rradius 30.5805
rwrist 5.09728
rhand -17.8571 14.4376
rfingers 7.12502
rthumb 8.40825 -15.3751
lclavicle 8.61359e-014 -1.82882e-014
lhumerus -32.8579 16.5273 82.4864
lradius 17.3516
lwrist -21.3537
lhand -15.7948 25.2912
lfingers 7.12502
lthumb 10.3981 55.0141
rfemur -25.067 -5.82576 16.9844
rtibia 72.7644
rfoot -3.17072 -3.45421
rtoes -16.1948
lfemur -10.6729 -3.66765 -29.628
ltibia 32.3885
lfoot -14.9751 0.732443
ltoes 5.30642
